<svg xmlns="http://www.w3.org/2000/svg" viewBox="0 0 1273.71 977.73"><defs><style>.cls-1{isolation:isolate;}.cls-2{fill:#a5489b;}.cls-3{fill:#1d0f40;}.cls-4{fill:#473a7a;}.cls-5{fill:none;stroke:#a5489b;stroke-linecap:round;stroke-miterlimit:10;stroke-width:7.06px;}.cls-14,.cls-6{fill:#8da53c;}.cls-7{fill:#2d509e;}.cls-8{fill:#b9cc69;}.cls-9{fill:#fff;}.cls-10{fill:#2661b5;}.cls-11{fill:#192e58;}.cls-12{fill:#385582;}.cls-13{fill:#6b7a2a;}.cls-14{mix-blend-mode:multiply;opacity:0.35;}.cls-15{fill:#332b5e;}.cls-16{fill:#873c82;}</style></defs><g class="cls-1"><g id="Layer_2" data-name="Layer 2"><g id="Layer_1-2" data-name="Layer 1"><path class="cls-2" d="M270.2,208.94V140.16c0-16.73,17.67-30.34,39.4-30.34H468.29l1.44-3c14.31-29.48,39.2-54.69,72-72.93,33.72-18.76,73.4-28.68,114.75-28.68s81,9.92,114.74,28.68c32.78,18.24,57.67,43.45,72,72.93l1.43,3h158.69c21.73,0,39.4,13.61,39.4,30.34v68.78Z"/><path class="cls-3" d="M656.46,10.5c40.45,0,79.24,9.69,112.19,28,31.83,17.71,56,42.13,69.81,70.63l2.87,5.92h162c9.56,0,18.45,2.89,25,8.13,5.88,4.69,9.12,10.71,9.12,17v63.53h-762V140.16c0-6.25,3.24-12.27,9.12-17,6.58-5.24,15.47-8.13,25-8.13h162l2.87-5.92c13.84-28.5,38-52.92,69.81-70.63,33-18.33,71.74-28,112.2-28m0-10.5C569.22,0,494.7,43.39,465,104.57H309.6c-24.66,0-44.65,15.93-44.65,35.59v74h783v-74c0-19.66-20-35.59-44.65-35.59H847.91C818.21,43.39,743.69,0,656.46,0Z"/><path class="cls-4" d="M472.75,113.94c-4.45,6.37-6,13-9.36,19.84H276c3.61-11.38,16.66-19.84,32.17-19.84Z"/><path class="cls-4" d="M1037.89,140.16v64.66h-20V167.61c0-19.66-20-35.59-44.65-35.59H817.81C788.11,70.85,713.59,27.45,626.35,27.45a247.66,247.66,0,0,0-90.89,16.9c3.91-2.55,7.94-5,12.12-7.31C580.1,18.94,618.34,9.37,658.15,9.37s78,9.57,110.57,27.67c31.8,17.68,56,42.21,69.91,70.91l2.91,6H1005C1023.14,113.94,1037.89,125.7,1037.89,140.16Z"/><line class="cls-5" x1="168.9" y1="883.71" x2="1232.22" y2="883.71"/><rect class="cls-6" x="263.41" y="244.7" width="786.09" height="636.19"/><rect class="cls-7" x="263.41" y="219.71" width="786.09" height="24.98"/><rect class="cls-3" x="263.41" y="735.24" width="786.09" height="145.64"/><rect class="cls-8" x="530.29" y="465.9" width="252.34" height="414.98"/><rect class="cls-9" x="545.29" y="483.57" width="222.33" height="397.31"/><path class="cls-10" d="M758.71,726.71h0a4.26,4.26,0,0,1-4.26-4.26V664.56a4.27,4.27,0,0,1,4.26-4.27h0a4.27,4.27,0,0,1,4.27,4.27v57.89A4.27,4.27,0,0,1,758.71,726.71Z"/><rect class="cls-6" x="563.83" y="834.27" width="185.25" height="34.28"/><rect class="cls-9" x="572.17" y="842.19" width="168.56" height="18.43"/><polygon class="cls-11" points="735.08 508.56 576.71 508.56 576.71 822.76 735.08 599.05 735.08 508.56"/><polygon class="cls-12" points="735.08 599.05 576.71 822.76 735.08 822.76 735.08 599.05"/><rect class="cls-8" x="812.35" y="386.14" width="181.28" height="292.72"/><rect class="cls-9" x="823.13" y="403.55" width="159.71" height="254.27"/><polygon class="cls-11" points="874.97 428.17 836.45 428.17 836.45 521.84 874.97 455.15 874.97 428.17"/><polygon class="cls-12" points="874.97 455.15 836.45 521.84 874.97 521.84 874.97 455.15"/><polygon class="cls-11" points="922.25 428.17 883.73 428.17 883.73 521.84 922.25 455.15 922.25 428.17"/><polygon class="cls-12" points="922.25 455.15 883.73 521.84 922.25 521.84 922.25 455.15"/><polygon class="cls-11" points="969.53 428.17 931 428.17 931 521.84 969.53 455.15 969.53 428.17"/><polygon class="cls-12" points="969.53 455.15 931 521.84 969.53 521.84 969.53 455.15"/><polygon class="cls-11" points="874.97 535.65 836.45 535.65 836.45 629.33 874.97 562.63 874.97 535.65"/><polygon class="cls-12" points="874.97 562.63 836.45 629.33 874.97 629.33 874.97 562.63"/><polygon class="cls-11" points="922.25 535.65 883.73 535.65 883.73 629.33 922.25 562.63 922.25 535.65"/><polygon class="cls-12" points="922.25 562.63 883.73 629.33 922.25 629.33 922.25 562.63"/><polygon class="cls-11" points="969.53 535.65 931 535.65 931 629.33 969.53 562.63 969.53 535.65"/><polygon class="cls-12" points="969.53 562.63 931 629.33 969.53 629.33 969.53 562.63"/><polyline class="cls-13" points="998.53 678.85 1012.84 719.93 815.7 719.27 807.45 700.2"/><rect class="cls-2" x="807.45" y="678.85" width="191.08" height="21.35"/><rect class="cls-8" x="322.04" y="386.14" width="181.28" height="292.72"/><rect class="cls-9" x="332.82" y="403.55" width="159.71" height="254.27"/><polygon class="cls-11" points="384.66 428.17 346.14 428.17 346.14 521.84 384.66 455.15 384.66 428.17"/><polygon class="cls-12" points="384.66 455.15 346.14 521.84 384.66 521.84 384.66 455.15"/><polygon class="cls-11" points="431.94 428.17 393.42 428.17 393.42 521.84 431.94 455.15 431.94 428.17"/><polygon class="cls-12" points="431.94 455.15 393.42 521.84 431.94 521.84 431.94 455.15"/><polygon class="cls-11" points="479.22 428.17 440.69 428.17 440.69 521.84 479.22 455.15 479.22 428.17"/><polygon class="cls-12" points="479.22 455.15 440.69 521.84 479.22 521.84 479.22 455.15"/><polygon class="cls-11" points="384.66 535.65 346.14 535.65 346.14 629.33 384.66 562.63 384.66 535.65"/><polygon class="cls-12" points="384.66 562.63 346.14 629.33 384.66 629.33 384.66 562.63"/><polygon class="cls-11" points="431.94 535.65 393.42 535.65 393.42 629.33 431.94 562.63 431.94 535.65"/><polygon class="cls-12" points="431.94 562.63 393.42 629.33 431.94 629.33 431.94 562.63"/><polygon class="cls-11" points="479.22 535.65 440.69 535.65 440.69 629.33 479.22 562.63 479.22 535.65"/><polygon class="cls-12" points="479.22 562.63 440.69 629.33 479.22 629.33 479.22 562.63"/><polyline class="cls-13" points="508.22 678.85 522.53 719.93 325.39 719.27 317.14 700.2"/><rect class="cls-2" x="317.14" y="678.85" width="191.08" height="21.35"/><rect class="cls-14" x="263.41" y="244.7" width="786.09" height="166.61"/><rect class="cls-8" x="274.84" y="567.54" width="32.91" height="9.89"/><rect class="cls-8" x="603.95" y="437.37" width="32.91" height="9.89"/><rect class="cls-8" x="699.68" y="432.52" width="32.91" height="9.89"/><rect class="cls-8" x="1004.57" y="505" width="32.91" height="9.89"/><rect class="cls-4" x="905.8" y="786.43" width="32.91" height="9.89"/><rect class="cls-8" x="581.66" y="418.28" width="32.91" height="9.89"/><rect class="cls-8" x="267.6" y="601.73" width="32.91" height="9.89"/><rect class="cls-8" x="560.25" y="437.37" width="32.91" height="9.89"/><rect class="cls-4" x="403.38" y="761.61" width="32.91" height="9.89"/><rect class="cls-4" x="427.05" y="832.3" width="32.91" height="9.89"/><rect class="cls-4" x="827.5" y="826.28" width="32.91" height="9.89"/><rect class="cls-4" x="874.97" y="782.99" width="32.91" height="9.89"/><rect class="cls-4" x="962.81" y="829.32" width="32.91" height="9.89"/><rect class="cls-4" x="993.63" y="761.61" width="32.91" height="9.89"/><rect class="cls-4" x="295.44" y="803.12" width="32.91" height="9.89"/><polygon class="cls-4" points="251.3 305.74 193.42 305.74 264.82 212.4 313.77 212.4 251.3 305.74"/><path class="cls-15" d="M193.42,305.74H251.3a0,0,0,0,1,0,0v25a27.57,27.57,0,0,1-27.57,27.57H221a27.57,27.57,0,0,1-27.57-27.57v-25A0,0,0,0,1,193.42,305.74Z"/><polygon class="cls-2" points="309.18 305.74 251.3 305.74 313.77 212.4 362.73 212.4 309.18 305.74"/><path class="cls-16" d="M251.3,305.74h57.88a0,0,0,0,1,0,0v25a27.57,27.57,0,0,1-27.57,27.57h-2.75a27.57,27.57,0,0,1-27.57-27.57v-25A0,0,0,0,1,251.3,305.74Z"/><polygon class="cls-4" points="367.06 305.74 309.18 305.74 362.73 212.4 411.68 212.4 367.06 305.74"/><path class="cls-15" d="M309.18,305.74h57.88a0,0,0,0,1,0,0v25a27.57,27.57,0,0,1-27.57,27.57h-2.75a27.57,27.57,0,0,1-27.57-27.57v-25A0,0,0,0,1,309.18,305.74Z"/><polygon class="cls-2" points="424.94 305.74 367.06 305.74 411.68 212.4 460.64 212.4 424.94 305.74"/><path class="cls-16" d="M367.06,305.74h57.88a0,0,0,0,1,0,0v25a27.57,27.57,0,0,1-27.57,27.57h-2.75a27.57,27.57,0,0,1-27.57-27.57v-25A0,0,0,0,1,367.06,305.74Z"/><polygon class="cls-4" points="482.82 305.74 424.94 305.74 460.64 212.4 509.59 212.4 482.82 305.74"/><path class="cls-15" d="M424.94,305.74h57.88a0,0,0,0,1,0,0v25a27.57,27.57,0,0,1-27.57,27.57H452.5a27.57,27.57,0,0,1-27.57-27.57v-25a0,0,0,0,1,0,0Z"/><polygon class="cls-2" points="540.7 305.74 482.82 305.74 509.59 212.4 558.55 212.4 540.7 305.74"/><path class="cls-16" d="M482.82,305.74H540.7a0,0,0,0,1,0,0v25a27.57,27.57,0,0,1-27.57,27.57h-2.75a27.57,27.57,0,0,1-27.57-27.57v-25A0,0,0,0,1,482.82,305.74Z"/><polygon class="cls-4" points="598.58 305.74 540.7 305.74 558.55 212.4 607.5 212.4 598.58 305.74"/><path class="cls-15" d="M540.7,305.74h57.88a0,0,0,0,1,0,0v25A27.57,27.57,0,0,1,571,358.33h-2.75a27.57,27.57,0,0,1-27.57-27.57v-25a0,0,0,0,1,0,0Z"/><polygon class="cls-2" points="656.46 305.74 598.58 305.74 607.5 212.4 656.46 212.4 656.46 305.74"/><path class="cls-16" d="M598.58,305.74h57.88a0,0,0,0,1,0,0v25a27.57,27.57,0,0,1-27.57,27.57h-2.75a27.57,27.57,0,0,1-27.57-27.57v-25A0,0,0,0,1,598.58,305.74Z"/><polygon class="cls-4" points="714.34 305.74 656.46 305.74 656.46 212.4 705.41 212.4 714.34 305.74"/><path class="cls-15" d="M656.46,305.74h57.88a0,0,0,0,1,0,0v25a27.57,27.57,0,0,1-27.57,27.57H684a27.57,27.57,0,0,1-27.57-27.57v-25A0,0,0,0,1,656.46,305.74Z"/><polygon class="cls-2" points="772.21 305.74 714.34 305.74 705.41 212.4 754.37 212.4 772.21 305.74"/><path class="cls-16" d="M714.33,305.74h57.88a0,0,0,0,1,0,0v25a27.57,27.57,0,0,1-27.57,27.57H741.9a27.57,27.57,0,0,1-27.57-27.57v-25A0,0,0,0,1,714.33,305.74Z"/><polygon class="cls-4" points="830.09 305.74 772.21 305.74 754.37 212.4 803.32 212.4 830.09 305.74"/><path class="cls-15" d="M772.21,305.74h57.88a0,0,0,0,1,0,0v25a27.57,27.57,0,0,1-27.57,27.57h-2.75a27.57,27.57,0,0,1-27.57-27.57v-25A0,0,0,0,1,772.21,305.74Z"/><polygon class="cls-2" points="887.97 305.74 830.09 305.74 803.32 212.4 852.27 212.4 887.97 305.74"/><path class="cls-16" d="M830.09,305.74H888a0,0,0,0,1,0,0v25a27.57,27.57,0,0,1-27.57,27.57h-2.75a27.57,27.57,0,0,1-27.57-27.57v-25A0,0,0,0,1,830.09,305.74Z"/><polygon class="cls-4" points="945.85 305.74 887.97 305.74 852.27 212.4 901.23 212.4 945.85 305.74"/><path class="cls-15" d="M888,305.74h57.88a0,0,0,0,1,0,0v25a27.57,27.57,0,0,1-27.57,27.57h-2.75A27.57,27.57,0,0,1,888,330.76v-25a0,0,0,0,1,0,0Z"/><polygon class="cls-2" points="1003.73 305.74 945.85 305.74 901.23 212.4 950.18 212.4 1003.73 305.74"/><path class="cls-16" d="M945.85,305.74h57.88a0,0,0,0,1,0,0v25a27.57,27.57,0,0,1-27.57,27.57h-2.75a27.57,27.57,0,0,1-27.57-27.57v-25a0,0,0,0,1,0,0Z"/><polygon class="cls-4" points="1061.61 305.74 1003.73 305.74 950.18 212.4 999.14 212.4 1061.61 305.74"/><path class="cls-15" d="M1003.73,305.74h57.88a0,0,0,0,1,0,0v25A27.57,27.57,0,0,1,1034,358.33h-2.75a27.57,27.57,0,0,1-27.57-27.57v-25a0,0,0,0,1,0,0Z"/><polygon class="cls-2" points="1119.49 305.74 1061.61 305.74 999.14 212.4 1048.09 212.4 1119.49 305.74"/><path class="cls-16" d="M1061.61,305.74h57.88a0,0,0,0,1,0,0v25a27.57,27.57,0,0,1-27.57,27.57h-2.75a27.57,27.57,0,0,1-27.57-27.57v-25A0,0,0,0,1,1061.61,305.74Z"/><line class="cls-5" x1="1123.3" y1="863.67" x2="1200.71" y2="863.67"/><line class="cls-5" x1="1229.44" y1="863.67" x2="1270.18" y2="863.67"/><line class="cls-5" x1="871.84" y1="915.9" x2="990.22" y2="915.9"/><line class="cls-5" x1="1117.05" y1="932.81" x2="1200.71" y2="932.81"/><line class="cls-5" x1="387.46" y1="909.63" x2="256.58" y2="909.63"/><line class="cls-5" x1="217.2" y1="909.63" x2="128.61" y2="909.63"/><line class="cls-5" x1="69.89" y1="974.2" x2="3.53" y2="974.2"/></g></g></g></svg>